<svg width="198" height="227" viewBox="0 0 198 227" fill="none" xmlns="http://www.w3.org/2000/svg">
<g clip-path="url(#clip0)">
<path fill-rule="evenodd" clip-rule="evenodd" d="M155.249 153.125C154.701 151.534 155.501 149.946 155.944 148.406C157.52 143.066 159.24 137.725 161.675 132.745C162.597 131.079 161.08 129.035 159.322 129.505C156.313 129.951 153.21 129.596 150.195 129.399C149.093 126.379 146.151 125.127 143.835 123.388C141.207 121.652 138.651 119.657 135.918 118.135C135.766 116.696 134.118 116.34 133.111 117.369C130.344 115.547 127.026 115.885 124.06 114.691C121.806 110.835 121.637 106.779 121.041 103.059C120.78 101.437 121.057 99.8719 120.01 98.4259C116.494 93.19 102.599 90.9198 97.4766 94.0226C94.7191 92.2019 94.6527 95.4993 94.2147 97.5345C93.7279 98.5527 93.4645 99.7058 93.5459 100.921C90.5839 107.47 83.8075 110.431 77.7387 112.83C76.9774 112.055 75.8892 112.153 75.1649 112.794C69.9046 114.005 64.7993 116.133 60.3921 119.456C55.3849 121.006 51.8586 125.318 49.3086 129.941C49.0276 130.428 48.9614 130.925 49.0435 131.381C41.2021 143.55 37.4596 158.118 36.934 172.832C31.8914 176.036 39.3307 204.818 41.0625 210.793C41.0642 210.792 41.066 210.792 41.0677 210.791C42.1912 212.896 43.4669 218.905 46.2787 218.44C48.2074 220.749 51.2811 220.295 53.8985 220.473C53.4722 222.204 53.6817 224.185 54.1891 225.895C54.7892 227.932 57.7341 228.001 58.1517 225.781C84.2166 231.142 110.96 226.864 137.318 227.669C144.939 227.726 152.559 227.976 160.162 228.551C161.232 228.631 162.318 227.473 162.245 226.345C160.61 207.935 159.075 183.715 157.248 165.485C156.814 161.328 156.471 157.125 155.249 153.125Z" fill="white"/>
<path fill-rule="evenodd" clip-rule="evenodd" d="M94.6446 95.1589C94.7194 94.943 95.024 94.9716 95.0298 95.2141C95.1499 100.391 93.9326 106.716 90.02 110.213C88.0116 112.008 85.3562 112.829 82.9177 113.773L82.6426 113.88L78.3343 115.58C77.1917 116.03 75.959 116.723 74.9497 116.087C75.7664 118.231 76.4521 120.434 77.4468 122.501C78.685 125.073 80.1821 127.427 82.0143 129.567C89.273 138.048 100.761 140.635 111.07 138.15C116.378 136.87 121.544 134.445 125.166 130.022C127.918 126.66 129.5 122.148 129.872 117.697C129.763 117.715 129.649 117.715 129.532 117.687C128.227 117.386 126.911 116.646 125.763 115.92L125.652 115.85C124.548 115.146 123.397 114.34 122.604 113.246C121.817 112.16 120.991 108.618 120.991 108.618C120.766 107.286 120.555 104.634 120.591 103.289C120.595 103.162 121.127 103.087 121.184 103.219C121.675 104.361 121.834 106.871 122.214 108.06L122.29 108.298C122.696 109.539 123.043 111.051 123.883 112.055C125.461 113.94 127.841 114.738 129.966 115.683C130.118 113.553 133.332 113.602 133.291 115.824C133.289 115.945 133.284 116.065 133.28 116.185C133.534 116.332 133.777 116.501 134.005 116.664L134.228 116.824C135.069 117.43 135.917 118.006 136.813 118.52C138.548 119.515 140.384 120.304 142.162 121.208C143.96 122.122 145.642 123.212 147.212 124.515C147.95 125.127 148.657 125.779 149.327 126.472L149.509 126.662C150.148 127.335 150.979 128.088 151.342 128.973C151.422 129.168 151.824 129.621 152.042 129.636C155.419 129.871 158.789 130.202 162.145 130.698C163.014 130.826 163.357 131.301 163.036 132.067C161.933 134.702 157.612 145.224 156.463 148.047C156.597 150.122 156.416 152.564 156.537 154.639C156.714 157.667 156.946 160.694 157.223 163.714C158.217 174.515 159.723 185.264 161.084 196.018C161.765 201.401 162.386 206.791 162.999 212.182C163.308 214.907 163.571 217.634 163.773 220.37C163.857 221.51 163.934 222.651 164.001 223.792L164.059 224.805C164.14 226.079 164.324 227.295 163.579 228.389C163.241 228.885 162.47 229.164 162.026 228.601C161.468 227.892 161.261 227.363 161.207 226.433C161.167 225.72 161.157 225.005 161.126 224.292C161.06 222.746 160.977 221.201 160.879 219.657C160.684 216.571 160.462 213.485 160.205 210.404C159.302 199.6 157.587 188.876 156.446 178.099C155.871 172.665 155.463 167.221 155.246 161.758C155.138 159.029 155.099 156.301 155.124 153.57C155.134 152.55 155.18 151.535 155.246 150.522C153.536 154.633 151.739 158.705 149.86 162.723L149.415 163.674C148.224 166.214 147.001 168.763 145.57 171.157L145.324 171.565C144.744 172.537 143.952 174.07 142.895 174.377C142.159 174.591 141.259 174.44 140.504 174.425C139.755 174.41 139.004 174.407 138.256 174.375C137.416 174.339 136.614 174.222 135.803 173.99C135.668 173.952 135.54 173.91 135.424 173.857C134.606 175.274 133.217 176.353 131.796 176.982C130.658 177.485 129.465 177.83 128.271 178.15L127.849 178.262C126.568 178.6 125.103 178.76 124.381 180.07L124.213 180.373C123.676 181.339 123.161 182.187 122.272 182.88C121.315 183.625 120.182 184.094 119.053 184.459C117.897 184.833 116.714 185.119 115.54 185.425L115.22 185.509C114.445 185.715 113.663 185.903 112.893 186.126C112.564 186.222 112.23 186.32 111.907 186.437C111.53 186.574 111.255 186.789 110.957 187.022C110.69 188.012 109.545 188.55 108.605 188.481C108.111 188.445 107.667 188.267 107.264 188.007C106.56 188.642 105.785 189.21 105.067 189.798C104.062 190.621 103.054 191.438 102.039 192.248C99.9477 193.917 97.8403 195.563 95.7109 197.178C91.9313 200.044 88.07 202.778 84.1426 205.411C82.5051 206.509 80.8566 207.605 79.1919 208.675L79.3695 208.745L79.7219 208.886C80.5549 209.215 81.483 209.747 81.6444 210.776C81.7723 211.592 81.3418 212.154 80.5808 212.254C79.6764 212.372 78.9726 211.696 78.4095 211.05C78.1609 210.765 77.8827 210.5 77.6447 210.207C77.5476 210.087 77.473 209.949 77.4073 209.805C75.7644 210.83 74.1041 211.82 72.4174 212.746L71.9952 212.976C67.8126 215.241 63.7416 217.721 59.5235 219.921C58.4232 220.495 57.0816 221.116 55.6832 221.54C56.0543 223.062 56.0485 224.734 56.058 226.279C56.0668 227.786 53.8061 227.778 53.8538 226.279L53.8768 225.556C53.918 224.338 53.9852 223.075 54.258 221.891C50.1379 222.614 46.022 221.042 45.2556 220.57C44.4098 220.049 43.642 219.216 43.003 218.443C41.6357 216.788 40.6868 214.805 39.845 212.81C38.0417 208.537 36.7641 203.969 35.8301 199.402C32.3865 182.561 33.8677 164.536 39.4599 148.393C40.8571 144.359 42.5066 140.414 44.3969 136.613L44.6316 136.143C46.5178 132.383 48.6142 128.638 51.2772 125.438C54.0509 122.106 57.4725 119.514 61.1979 117.503C63.016 116.521 64.8867 115.67 66.7988 114.916C67.1059 114.795 67.4151 114.686 67.725 114.583C69.7175 113.238 72.1357 111.951 74.5547 112.002C74.7191 112.005 74.8523 112.071 74.9516 112.171C75.0682 112.192 75.1848 112.218 75.3016 112.254C75.5594 112.334 75.8316 112.633 75.7947 112.94L75.7821 113.042C75.7753 113.092 75.7667 113.14 75.752 113.187C75.8384 113.201 75.9233 113.223 76.0065 113.253C78.3209 112.561 80.5981 111.503 82.8566 110.649L83.371 110.457C85.2626 109.755 87.2033 109.067 88.755 107.678C90.2987 106.296 91.4595 104.507 92.2987 102.572C93.3327 100.188 93.7956 97.6061 94.6446 95.1589ZM140.983 220.88C141.441 220.519 141.983 220.938 142.154 221.384C142.717 222.85 142.439 225.129 141.646 226.425C140.823 227.768 138.855 227.238 138.807 225.611C138.758 223.915 139.689 221.899 140.983 220.88ZM145.716 180.397C145.758 180.207 146.037 180.208 146.079 180.397C146.46 182.117 146.452 183.97 146.564 185.734L146.577 185.929C146.711 187.875 146.824 189.825 146.904 191.773C147.063 195.607 147.251 199.441 147.463 203.271C147.568 205.171 147.681 207.07 147.801 208.969C148.177 208.747 148.565 208.552 148.966 208.38C149.568 208.122 150.154 208.093 150.8 208.1C151.587 208.108 152.18 208.842 152.076 209.658C151.962 210.547 151.223 210.928 150.455 210.801C149.604 210.66 148.75 210.442 147.891 210.352C147.987 211.82 148.086 213.288 148.191 214.754C148.329 216.696 148.511 218.636 148.638 220.579C148.65 220.764 148.663 220.95 148.677 221.136C149.189 220.854 149.732 220.71 150.349 220.532L150.509 220.485C151.404 220.212 152.361 219.836 153.189 220.473C153.746 220.902 153.857 221.606 153.396 222.171C152.697 223.028 151.662 222.862 150.696 222.818L150.177 222.798C149.687 222.778 149.235 222.745 148.782 222.614C148.866 223.88 148.909 225.15 148.763 226.397C148.683 227.071 147.845 227.248 147.623 226.56C147.044 224.763 146.924 222.825 146.712 220.943C146.514 219.185 146.394 217.414 146.264 215.648L146.225 215.119C145.933 211.234 145.699 207.347 145.529 203.454C145.358 199.561 145.256 195.67 145.215 191.773C145.196 190.004 145.224 188.229 145.29 186.46L145.31 185.929C145.386 184.11 145.333 182.18 145.716 180.397ZM69.1265 221.166C69.1488 220.918 69.3369 220.609 69.6166 220.648C69.8744 220.683 70.14 220.666 70.395 220.711C70.7316 220.77 71.0025 220.981 71.3155 221.113C71.8243 221.328 72.3789 221.44 72.9009 221.616C73.8803 221.947 74.414 223.038 74.0084 224.058C73.5819 225.129 72.5101 225.372 71.5841 224.923C70.8542 224.568 70.3101 224.002 69.8193 223.346L69.6802 223.159C69.4687 222.878 69.2287 222.563 69.1399 222.222C69.0537 221.89 69.0962 221.505 69.1265 221.166ZM116.709 216.129C117.929 215.947 118.971 216.389 120.099 216.805L120.191 216.838C121.34 217.258 123.016 217.549 123.605 218.794C123.96 219.544 123.684 220.541 122.848 220.763C121.524 221.115 120.337 220.09 119.243 219.401L119.185 219.365C118.129 218.709 117.038 218.159 116.363 217.028C116.183 216.727 116.339 216.184 116.709 216.129ZM74.1252 113.424C73.6365 113.539 73.1478 113.642 72.6596 113.74C70.8024 114.794 68.9999 115.888 67.0825 116.827C65.0481 117.823 63.0212 118.852 61.0888 120.057C57.1847 122.492 53.9663 125.657 51.3069 129.538C46.7132 136.241 43.2961 143.971 40.8506 151.814C40.2223 153.829 39.66 155.867 39.1625 157.921C40.042 157.06 41.0833 156.531 42.2509 156.077C42.7457 155.885 43.3617 156.211 43.6125 156.664C43.7252 156.868 43.7889 157.069 43.7772 157.308C43.7512 157.836 43.427 158.435 42.8919 158.539C41.6445 158.783 40.4316 159.256 39.2288 159.674C39.0465 159.737 38.8898 159.713 38.7646 159.638C37.5705 164.993 36.8235 170.458 36.5589 175.956C36.3351 180.61 36.4732 185.301 36.9601 189.949C37.3343 189.771 37.7004 189.604 38.1107 189.503C38.6428 189.372 39.1662 189.213 39.6852 189.033C41.1831 188.512 41.8664 191.13 40.3354 191.529C39.7656 191.678 39.1923 191.801 38.6118 191.891C38.1058 191.97 37.6582 191.935 37.1811 191.853C37.5456 194.753 38.0434 197.632 38.6775 200.469L38.8174 201.09C39.6411 204.715 40.601 208.373 41.9893 211.799C42.6702 213.479 43.5719 215.075 44.6851 216.476C45.232 217.164 45.8391 217.755 46.5011 218.314C47.0522 218.78 48.9256 219.79 51.1443 219.79C53.363 219.79 53.9637 219.568 55.0831 219.16C57.2968 218.354 59.3986 217.066 61.4747 215.919L61.6894 215.801C62.6074 215.298 63.5219 214.788 64.434 214.273C64.3188 213.289 64.5205 212.462 65.005 211.552C65.5288 210.569 66.8265 211.059 66.923 212.065L66.9261 212.103C66.9408 212.33 66.9767 212.561 67.0213 212.792C73.1201 209.255 79.0897 205.47 84.9643 201.527C88.7485 198.986 92.4923 196.37 96.1815 193.677C98.0257 192.331 99.8539 190.961 101.664 189.563C102.612 188.831 103.556 188.094 104.495 187.35C104.887 187.04 105.27 186.714 105.663 186.402C105.567 186.276 105.474 186.15 105.384 186.025C103.92 183.996 102.97 181.576 102.497 179.08C102.211 177.574 102.073 176.01 102.031 174.475L102.012 173.807C101.983 172.682 101.976 171.505 102.172 170.415C101.905 170.57 101.633 170.722 101.361 170.885C100.388 171.469 99.4129 172.051 98.4367 172.631C96.4818 173.792 94.5211 174.94 92.5356 176.041C88.989 178.008 85.4076 179.879 81.7294 181.556L79.9397 182.373C76.8335 183.788 73.702 185.176 70.4725 186.228C68.6509 186.821 66.8156 187.327 64.9679 187.78L65.7151 188.707C66.2218 189.335 66.2307 190.236 65.5832 190.765C64.9466 191.285 64.0926 191.069 63.6685 190.378L62.8955 189.119C62.7303 188.85 62.6365 188.598 62.5834 188.333C61.7322 188.521 60.8789 188.702 60.0232 188.877L58.4056 189.204C56.0958 189.676 53.8563 190.611 51.7917 191.807C51.074 192.223 50.874 191.415 51.6344 190.852C53.858 189.206 56.4517 188.275 59.1279 187.494L59.2594 187.455C60.2412 187.171 61.2212 186.874 62.1992 186.567C62.0917 186.155 62.0296 185.727 62.042 185.256C62.0695 184.206 62.1572 183.153 62.2098 182.104C62.3203 179.902 62.4613 177.707 62.6266 175.51C62.69 174.663 62.7611 173.814 62.8425 172.966C62.3181 172.668 61.8658 172.273 61.2811 172.079L61.1824 172.048C60.557 171.87 60.7681 171.017 61.3235 170.944C61.8267 170.878 62.3275 170.908 62.8235 171.021C62.9004 171.038 62.9731 171.058 63.0425 171.08C63.1336 170.295 63.2347 169.511 63.3496 168.732C63.6534 166.673 63.8683 164.504 64.5006 162.525C64.5475 162.379 64.753 162.326 64.8292 162.48C65.7491 164.333 65.7811 166.605 65.8847 168.669L65.8976 168.915C66.0198 171.166 66.0267 173.439 65.9874 175.693C65.9469 178.015 65.8718 180.332 65.7733 182.653C65.7338 183.588 65.7353 184.557 65.5849 185.451C71.0592 183.567 76.4367 181.312 81.5912 178.641C85.2272 176.758 88.8318 174.799 92.3953 172.766C94.1807 171.748 95.9746 170.746 97.7582 169.724C98.3831 169.366 99.0075 169.007 99.6317 168.647L100.568 168.106C101.444 167.6 102.175 167.097 103.195 167.061C103.499 167.051 103.772 167.202 103.966 167.43C104.514 167.018 105.148 166.765 105.813 166.771C106.814 165.307 107.831 163.855 108.888 162.435L109.668 161.383C111.02 159.569 112.452 157.727 114.175 156.346C114.944 155.729 115.79 155.267 116.672 154.885C116.465 154.832 116.262 154.724 116.08 154.546C115.238 153.719 115.122 152.182 114.951 151.028C114.773 149.831 114.842 148.759 115.017 147.566C115.085 147.102 115.811 147.006 115.988 147.432C116.361 148.33 116.756 149.19 117.095 150.098L117.196 150.372C117.56 151.395 118.336 152.47 118.285 153.579C118.271 153.883 118.175 154.148 118.026 154.361C118.767 154.1 119.518 153.868 120.258 153.626C122.586 152.865 124.923 152.124 127.296 151.534C127.928 151.376 128.562 151.23 129.2 151.096C129.534 149.418 130.02 147.771 130.594 146.153C130.051 145.858 129.699 145.364 129.231 144.925C128.793 144.513 128.493 144.012 128.119 143.54C127.779 143.11 127.97 142.334 128.581 142.359L128.754 142.366C129.387 142.398 130.001 142.467 130.575 142.78L130.779 142.891C131.06 143.046 131.367 143.222 131.64 143.431C131.997 142.56 132.369 141.698 132.745 140.844L133.232 139.74C134.497 136.867 135.757 133.884 137.344 131.208C138.05 130.019 138.989 129.276 140.336 129.161C141.724 129.043 143.167 129.196 144.556 129.248C146.167 129.309 147.778 129.382 149.387 129.471C148.975 129.014 148.598 128.504 148.184 128.065C147.496 127.337 146.77 126.647 146.006 126.009C144.494 124.747 142.832 123.707 141.106 122.811C139.379 121.915 137.601 121.134 135.981 120.027C134.955 119.327 134.038 118.446 133.202 117.492C132.675 123.506 129.932 129.093 125.811 133.29C121.531 137.65 115.617 140.045 109.831 141.064C103.929 142.103 97.7698 141.722 92.1242 139.55C89.2133 138.43 86.4214 136.83 83.9316 134.824C83.9043 134.998 83.8713 135.171 83.8067 135.333C83.7199 135.551 83.6138 135.736 83.492 135.928L83.275 136.264C83.1381 136.475 82.9985 136.684 82.8432 136.88C82.4668 137.355 81.9337 137.563 81.3594 137.56C80.2597 137.557 79.427 136.415 79.7229 135.286C79.9089 134.577 80.3068 134.15 80.928 133.872C81.1243 133.784 81.3244 133.711 81.5257 133.638L81.6768 133.584C81.8802 133.51 82.082 133.44 82.2913 133.399C81.1124 132.298 80.0185 131.1 79.039 129.807C75.9667 125.753 72.9363 120.075 73.9635 114.69C73.9813 114.598 74.0599 114.54 74.1446 114.525C74.2042 114.147 74.3942 113.782 74.6544 113.536C74.4792 113.487 74.3027 113.449 74.1252 113.424ZM106.028 206.516C106.637 206.157 107.265 207.009 106.771 207.534L106.032 208.316C105.347 209.045 104.68 209.782 104.094 210.613L103.952 210.816C103.16 211.956 102.316 213.277 101.019 213.703C99.4496 214.219 97.9418 212.195 98.8504 210.717C99.6441 209.426 101.173 208.938 102.49 208.404C103.737 207.899 104.863 207.201 106.028 206.516ZM55.4122 200.555C55.7697 200.059 56.7018 200.32 56.4576 201.021C55.6644 203.298 55.3411 206.403 53.3377 207.915C52.6915 208.403 51.6762 208.179 51.1441 207.615C50.5394 206.975 50.5152 206.074 50.861 205.293C51.2827 204.34 52.32 203.65 53.0472 202.924L53.1124 202.858C53.8946 202.054 54.7407 201.486 55.4122 200.555ZM139.142 203.175C139.78 202.884 141.443 202.318 141.936 202.988C141.959 203.012 141.979 203.039 141.994 203.069C142.115 203.291 142.133 203.605 141.994 203.825C141.42 204.739 140.822 205.421 140.005 206.072L139.914 206.144C139.025 206.835 138.19 207.648 137.107 207.96C135.606 208.393 134.557 206.403 135.611 205.241C136.461 204.305 137.757 203.819 138.883 203.297L139.142 203.175ZM78.8556 190.166C78.6044 189.686 79.1176 189.096 79.5822 189.397C80.9078 190.255 82.4518 190.898 83.9407 191.36C84.5432 191.547 85.0868 192.194 85.0421 192.892L85.035 192.997C85.0173 193.244 84.9852 193.489 84.8373 193.693C84.3187 194.411 83.5769 194.688 82.7848 194.263C81.0193 193.316 79.8109 191.994 78.8556 190.166ZM117.598 188.711C117.565 188.509 117.705 188.353 117.899 188.392C119.019 188.617 120.054 189.19 121.016 189.848C121.532 190.201 122.029 190.589 122.544 190.946C123.18 191.386 123.418 191.75 123.512 192.558C123.574 193.091 123.103 193.578 122.672 193.726C121.496 194.127 120.149 192.81 119.353 191.954L119.317 191.916C118.483 191.016 117.795 189.952 117.598 188.711ZM151.242 187.313C150.987 186.583 151.867 185.978 152.442 186.337C152.984 186.674 153.572 186.954 154.083 187.341C154.553 187.696 154.981 188.118 155.432 188.503L155.655 188.69C156.481 189.393 157.844 191.132 156.663 192.14C155.539 193.101 154.048 191.874 153.294 190.978L153.241 190.914C152.807 190.384 152.272 189.807 151.957 189.187C151.66 188.603 151.459 187.933 151.242 187.313ZM140.155 130.803C138.747 131.092 138.173 132.932 137.58 134.132C136.181 136.962 134.894 139.845 133.601 142.731C133.203 143.619 132.816 144.513 132.425 145.406C132.401 145.476 132.37 145.545 132.334 145.613C131.533 147.439 130.708 149.252 129.744 150.985C130.627 150.81 131.513 150.661 132.404 150.544C132.359 149.656 132.933 148.469 133.216 147.722L133.24 147.659C133.594 146.702 133.965 145.194 134.876 144.697C135.18 144.532 135.505 144.739 135.528 145.093C135.597 146.146 134.624 147.352 134.148 148.247C133.86 148.788 133.58 149.331 133.306 149.88C133.204 150.086 133.118 150.288 133.013 150.469C133.472 150.417 133.932 150.37 134.393 150.336L134.693 150.314C136.401 150.195 138.216 150.161 139.76 151.052C141.192 151.88 141.924 153.646 141.137 155.254C140.157 157.257 137.998 157.523 136.1 157.685C133.729 157.888 131.353 158.253 128.999 158.61C126.564 158.978 124.271 159.929 121.873 160.417C121.65 160.463 121.511 160.154 121.715 160.022C123.607 158.802 125.908 158.131 128.023 157.448L128.194 157.393C129.342 157.019 130.463 156.593 131.65 156.382C132.802 156.176 133.962 156.01 135.124 155.883L135.237 155.872C136.516 155.759 139.781 155.797 139.643 153.792C139.551 152.464 137.513 152.235 136.583 152.219C132.317 152.147 128.021 153.345 123.967 154.63L123.062 154.917C121.402 155.446 119.739 155.99 118.111 156.61C116.265 157.312 114.811 158.407 113.466 159.906C111.976 161.568 110.532 163.267 108.986 164.873C108.011 165.886 107.023 166.88 106.028 167.867C105.803 168.175 105.623 168.51 105.499 168.945C105.288 169.68 105.337 170.363 105.416 171.117C105.617 173.023 105.661 174.949 105.912 176.849C106.145 178.609 106.47 180.434 107.161 182.067C107.434 182.714 107.79 183.349 108.195 183.917L108.522 184.367C108.665 184.562 108.824 184.776 108.992 184.977C109.237 184.66 109.593 184.454 110.006 184.505C110.884 184.615 111.575 184.588 112.436 184.375C113.103 184.21 113.765 184.016 114.429 183.837C115.732 183.485 117.048 183.164 118.338 182.76L118.56 182.689C119.522 182.377 120.484 181.986 121.284 181.329C122.214 180.565 122.5 179.463 123.189 178.511C124.659 176.476 127.838 176.519 129.989 175.962C131.818 175.488 133.578 174.741 134.844 173.336L134.917 173.253C134.861 173.002 134.952 172.719 135.172 172.589L135.22 172.561C135.306 172.51 135.398 172.489 135.489 172.491C135.606 172.308 135.72 172.12 135.823 171.919C135.907 171.754 136.119 171.875 136.091 172.039C136.075 172.136 136.052 172.232 136.03 172.327C137.256 171.993 138.602 172.057 139.847 172.058L141.462 172.052C141.742 172.048 142.158 172.033 142.195 172.016L142.233 171.998C142.334 171.951 142.191 172.028 142.262 171.929C142.339 171.82 142.415 171.71 142.49 171.598C142.758 171.202 143.011 170.793 143.259 170.381C140.554 171.111 137.752 171.564 134.99 171.943C132.027 172.349 129.025 172.631 126.036 172.634C125.212 172.635 125.219 171.318 126.036 171.285C129.201 171.157 132.35 170.98 135.495 170.55C137.121 170.328 138.74 170.049 140.35 169.723C140.972 169.597 141.592 169.464 142.21 169.323L142.674 169.215C142.965 169.147 143.787 169.049 144.188 168.765C144.267 168.621 144.345 168.478 144.424 168.335C144.385 167.832 143.178 167.9 142.895 167.899C142.092 167.897 141.289 167.904 140.486 167.906C138.881 167.911 137.276 167.896 135.67 167.883C132.462 167.855 129.242 167.737 126.037 167.882C125.259 167.917 124.85 166.596 125.619 166.248C129.014 164.714 132.783 164.38 136.408 163.909C138.314 163.661 140.222 163.374 142.085 162.872L142.546 162.748C143.717 162.431 145.009 162.043 145.995 161.286C144.513 160.652 142.672 160.724 141.136 160.634L141.018 160.627C138.868 160.487 136.713 160.416 134.559 160.412C130.15 160.406 125.74 160.571 121.336 160.792C121.226 160.798 121.203 160.613 121.31 160.589C125.836 159.543 130.437 159.039 135.069 158.962C137.226 158.926 139.384 158.958 141.54 159.059L142.331 159.098C144.168 159.181 146.208 159.204 147.745 160.379C147.979 160.558 148.103 160.787 148.122 161.028C150.185 156.677 152.089 152.234 154.001 147.821C155.488 144.39 156.919 140.929 158.46 137.525L158.959 136.423C159.626 134.954 160.311 133.484 161.071 132.067C158.229 131.665 155.372 131.386 152.513 131.172C149.909 130.977 141.409 130.546 140.155 130.803ZM138.897 177.967C139.221 177.776 139.718 177.932 139.797 178.354C139.857 178.669 139.958 179.019 139.958 179.341C139.958 179.727 139.828 180.147 139.758 180.524C139.599 181.393 139.402 182.098 138.985 182.872C138.724 183.356 138.197 183.684 137.667 183.672C137.248 183.661 136.876 183.542 136.589 183.199C136.244 182.787 136.007 182.181 136.196 181.627C136.692 180.175 137.602 178.728 138.897 177.967ZM70.1726 176.518C70.9308 175.112 72.728 173.856 74.2963 173.98C76.6512 174.167 77.1317 177.524 74.8518 178.325C73.4889 178.803 71.614 178.312 70.4219 177.524C70.1005 177.312 69.9826 176.87 70.1726 176.518ZM45.9703 171.715C45.7981 171.45 46.0827 171.147 46.3393 171.207C46.9083 171.339 47.5218 171.397 48.0792 171.577C48.6501 171.76 49.2026 172.065 49.768 172.275C50.9525 172.714 52.2177 172.935 53.3641 173.465C53.8223 173.677 54.1827 174.38 54.1404 174.897L54.1296 175.019C54.1042 175.276 54.0621 175.5 53.9263 175.735C53.5615 176.366 52.8387 176.691 52.1565 176.497C50.891 176.137 49.6544 175.213 48.5753 174.445L48.3759 174.304C47.9044 173.975 47.3975 173.632 47.0176 173.209C46.6211 172.767 46.2952 172.215 45.9703 171.715ZM89.4738 166.602C89.3281 166.046 89.9808 165.679 90.3613 166.055C91.1216 166.805 91.9166 167.5 92.6612 168.269L92.7112 168.321C93.2444 168.888 94.0201 169.982 93.3266 170.716C92.4381 171.656 91.2007 170.261 90.724 169.533C90.1194 168.611 89.7567 167.681 89.4738 166.602ZM147.655 162.01C146.527 163.274 144.789 163.856 143.259 164.338C141.445 164.908 139.576 165.249 137.705 165.53C135.897 165.801 134.103 166.043 132.324 166.354C133.67 166.372 135.015 166.382 136.358 166.408C137.907 166.437 139.454 166.473 141.002 166.52C142.13 166.555 143.453 166.391 144.524 166.835C144.717 166.915 144.898 167.025 145.055 167.16C145.956 165.464 146.819 163.745 147.655 162.01ZM78.0861 150.183C79.2633 149.787 80.3703 149.262 81.6182 149.398C81.9499 149.434 82.1875 149.776 82.0064 150.113C81.415 151.215 80.4533 151.837 79.5066 152.574L79.4232 152.64C78.387 153.456 77.2744 154.199 76.1476 154.869C74.2075 156.021 72.4689 152.723 74.4282 151.754C75.6071 151.172 76.8455 150.6 78.0861 150.183ZM99.2804 147.319C101.081 147.444 102.881 147.529 104.685 147.607C106.773 147.696 106.071 151.099 104.326 150.41C102.602 149.73 100.878 149.058 99.1392 148.423C98.6097 148.23 98.6523 147.309 99.2468 147.317L99.2804 147.319ZM53.0875 141.265C53.5543 141.23 54.0251 141.338 54.4925 141.386L54.9899 141.437C56.0153 141.545 56.9767 141.679 57.9545 142.12C59.7589 142.935 58.7898 146.006 56.9785 145.936C55.6397 145.884 54.495 145.275 53.3645 144.566C52.3762 143.947 51.7704 143.172 51.103 142.199C50.882 141.877 51.19 141.516 51.491 141.483C52.0212 141.426 52.5571 141.304 53.0875 141.265ZM143.533 134.994C143.234 136.967 142.493 138.815 141.376 140.425C140.815 141.233 139.83 141.264 139.274 140.425C138.487 139.237 138.972 137.877 139.565 136.736L139.74 136.402C140.006 135.901 140.413 135.171 140.879 134.667L140.887 134.615C141.136 132.55 143.84 132.962 143.533 134.994ZM70.6885 122.336C71.1375 121.908 71.9644 122.037 72.1101 122.733C72.314 123.709 72.4381 124.809 72.3046 125.799C72.2323 126.336 72.2051 126.939 72.0057 127.439C71.7913 127.977 71.3789 128.391 70.9904 128.795C70.2148 129.602 68.5797 129.335 68.372 128.063L68.3456 127.907C68.2411 127.305 68.1074 126.662 68.2622 126.065C68.379 125.615 68.64 125.156 68.856 124.738L68.9015 124.649C69.3341 123.796 70.0084 122.984 70.6885 122.336ZM133.799 124.412L133.962 124.414C135.215 124.44 137.506 124.763 137.518 126.402C137.521 126.789 137.251 127.189 136.889 127.278C136.139 127.462 135.655 126.994 135.121 126.52C134.685 126.133 134.176 125.824 133.647 125.601C133.076 125.361 133.114 124.411 133.799 124.412Z" fill="black"/>
<path fill-rule="evenodd" clip-rule="evenodd" d="M135.964 60.5191C135.317 55.0533 133.284 49.2501 131.147 44.1544C126.341 33.3808 115.338 31.8974 105.475 29.6761C95.7413 28.1759 85.4343 26.8213 75.8477 29.8145C70.4583 31.2123 68.3533 38.0076 69.2039 43.3701C69.6893 46.7117 71.126 49.8742 72.3511 52.9711C74.7862 59.331 76.3312 66.1398 76.3338 73.0255C76.1666 77.5253 75.5667 82.6614 80.4512 84.5673C85.0991 87.0143 85.4918 93.6476 91.3117 97.4112C93.665 102.458 100.075 102.902 104.689 104.073C107.605 104.663 110.554 105.098 113.512 105.379C122.074 106.541 128.924 103.914 133.406 95.8389C136.405 90.9244 138.639 85.2499 138.087 79.2938C137.538 73.0218 136.622 66.7826 135.964 60.5191Z" fill="white"/>
<path fill-rule="evenodd" clip-rule="evenodd" d="M105.549 16.5825C106.037 15.9961 106.79 16.1972 107.247 16.6609C107.545 16.7538 107.833 16.8918 108.105 17.0745C108.721 16.9909 109.366 16.9909 109.969 17.0143C110.115 16.9274 110.272 16.8501 110.443 16.7836C111.663 16.3114 112.744 16.5513 113.635 17.1835C114.064 16.7536 114.606 16.4838 115.298 16.5246C115.916 16.5611 116.356 16.8689 116.733 17.2743C117.11 16.6999 117.718 16.29 118.476 16.233C119.535 16.1533 120.553 16.603 121.397 17.2992C121.889 16.7021 122.559 16.3589 123.306 16.3556C123.798 16.2611 124.317 16.2983 124.785 16.4482C125.466 16.6657 126.063 17.0734 126.539 17.6024C127.292 16.8392 128.213 16.29 129.276 16.3701C130.651 16.4753 131.791 17.5457 132.321 18.8632C133.251 19.2579 134.111 19.8209 134.829 20.6236C134.867 20.6659 134.904 20.7102 134.942 20.7546C135.329 20.9058 135.693 21.12 136.014 21.4021C137.03 22.2973 137.257 23.5926 136.92 24.862C136.967 25.0651 137.008 25.2718 137.044 25.4783C137.996 25.6314 138.86 26.2129 139.352 27.1595C140.025 28.4586 139.892 30.1708 139.164 31.411C138.85 31.9444 138.453 32.3939 138.006 32.787C138.511 34.0011 138.269 35.45 137.455 36.4321C137.256 36.7707 137.013 37.0762 136.739 37.3528C137.041 38.6082 136.503 39.9033 135.43 40.5741L135.338 40.8174C135.323 40.8579 135.307 40.8981 135.291 40.938C135.279 40.9896 135.264 41.0397 135.25 41.09C135.224 41.5355 135.086 41.9726 134.811 42.3845C134.247 43.2285 133.55 43.779 133.179 44.7643L133.142 44.8678C132.983 45.3341 132.469 45.6631 132.032 45.5192C134.462 50.8042 135.737 56.6848 136.612 62.4479C137.048 65.323 137.385 68.208 137.658 71.1042L137.926 73.9882C138.161 76.5517 138.371 79.1237 138.372 81.6957C138.376 87.5139 136.804 93.1104 133.429 97.7403C130.238 102.117 125.722 105.289 120.62 106.538C115.353 107.826 109.174 107.319 104.451 104.37C103.058 103.503 104.278 101.418 105.695 102.115C108.378 103.437 111.104 104.418 114.077 104.638C116.976 104.854 119.881 104.47 122.63 103.466C127.177 101.804 131.047 98.3216 133.534 93.9852C134.759 91.8483 135.646 89.529 136.119 87.0783C136.707 84.0239 136.618 80.8668 136.402 77.7733L136.387 77.5625C135.96 71.6022 135.397 65.6051 134.487 59.7042C133.683 54.486 132.446 49.3735 130.841 44.3742C130.212 43.7882 129.509 43.3032 128.756 42.9349C123.243 42.6912 117.721 42.7624 112.216 43.165C107.521 43.5106 102.848 44.0954 98.211 44.9476L97.7143 45.04C96.6877 45.2335 95.5478 45.3443 94.5805 45.7818C93.7508 46.1582 93.4144 46.8815 93.2053 47.7708C92.6789 50.0201 92.5987 52.4819 92.5098 54.7884C92.4227 57.0431 92.6197 59.3167 92.4488 61.564C92.3042 63.4443 91.8493 65.3689 90.5333 66.729C89.8449 67.4411 88.9978 67.8305 88.203 68.3711C87.6888 68.7201 87.471 69.0797 87.5372 69.7256C87.6801 71.139 88.7555 72.9197 87.5476 74.1302C87.335 74.3424 86.9672 74.37 86.7581 74.1302C86.2596 73.5565 85.5711 73.119 84.9803 72.6558C84.7328 72.4641 84.9384 72.0913 85.2191 72.224C85.5886 72.3995 85.965 72.6062 86.3502 72.787C85.4997 72.0452 84.2901 71.6815 83.2826 71.4656C82.7754 71.3586 82.2421 71.3272 81.714 71.3772C81.3235 71.5745 80.9244 71.7574 80.5253 71.9362C80.0181 72.1615 79.5056 72.3661 78.9897 72.56C77.1997 74.1043 76.3457 76.6159 76.7187 79.0719C76.9226 80.428 77.5134 81.9025 78.6272 82.6942C79.9466 83.6315 81.714 83.2291 83.1397 83.9249C84.4748 84.5761 85.287 85.892 85.8953 87.2538L86.1489 87.8207C86.7135 89.076 87.2939 90.298 88.0653 91.4405C88.9577 92.7635 90.0505 93.9518 91.2427 94.9725C91.8211 95.4664 92.4375 95.9107 93.0746 96.3153L93.2489 96.4247C93.8938 96.8251 94.3556 97.2069 94.3992 98.0538C94.4132 98.3491 94.2371 98.6185 94.0105 98.7716C93.0345 99.4267 92.0637 98.6074 91.2514 98.0354C90.3747 97.4191 89.5364 96.7254 88.7607 95.9689C87.2862 94.5333 86.0104 92.8283 85.0291 90.9773C84.2813 89.5677 83.8561 87.5841 82.6743 86.4917C81.9528 85.8254 80.9331 85.82 80.032 85.698C79.1937 85.5838 78.4006 85.3993 77.6546 84.962C74.6201 83.1776 73.7626 78.8579 74.4824 75.5198C74.6044 74.9568 74.7753 74.4088 74.9862 73.8811C73.8567 74.0803 72.5878 72.8442 73.0462 71.5966C73.0811 71.5025 73.1212 71.4141 73.1595 71.3235C72.4153 70.805 71.8279 70.0191 71.549 68.9911C71.4061 68.4597 71.3852 67.9227 71.4602 67.4042C71.0994 67.1479 70.8013 66.7953 70.6096 66.3617C70.01 66.0683 69.4784 65.6293 69.1612 65.0019C68.722 64.1363 68.7777 63.3391 69.1124 62.6213C69.0653 62.5311 69.02 62.4388 68.9764 62.3445C67.7477 61.5199 66.8901 60.0989 66.9877 58.523C67.0191 58.0008 67.1411 57.5303 67.3293 57.1061C67.3137 57.0526 67.298 56.997 67.284 56.9435C66.2557 56.3899 65.4051 55.4804 65.1018 54.2662C64.7986 53.0445 65.1559 51.8266 65.8705 50.8892C64.8247 50.0794 64.1955 48.9482 64.5772 47.2375C64.7323 46.542 65.0443 45.9089 65.4661 45.3756C65.4644 45.3592 65.4609 45.3426 65.4574 45.3258L65.3596 45.2455C64.0686 44.1669 63.3264 42.7925 64.1188 41.102C64.4744 40.342 64.9816 39.8122 65.5777 39.4634L65.6073 39.3638C65.1803 38.395 65.0356 37.3193 65.3302 36.1881C65.5707 35.2565 66.1406 34.5145 66.8692 34.022C66.8204 33.6048 66.8274 33.1602 66.9058 32.6785C67.0365 31.8649 67.4182 31.1545 67.976 30.6507C67.9969 30.5435 68.023 30.4385 68.0527 30.3331C68.2409 29.6893 68.593 28.99 69.0008 28.4713C69.3372 28.0413 69.7137 27.8845 70.1739 27.8679C70.146 27.4713 70.1651 27.0689 70.2418 26.6611C70.4771 25.4028 71.2336 24.2198 72.3543 23.6829C72.8144 23.4633 73.299 23.3989 73.7661 23.4522C74.1635 22.5665 74.9391 21.9245 75.8925 21.7861C76.2637 21.7308 76.6089 21.7343 76.9261 21.7843C77.1056 21.6955 77.2921 21.6164 77.4873 21.5442C77.6163 21.4962 77.747 21.4519 77.8777 21.4078C78.3187 20.8284 78.8991 20.3651 79.5771 20.0866C80.3597 19.7637 81.1562 19.7968 81.8621 20.068L82.087 20.0182C82.439 19.3724 83.0003 18.8723 83.863 18.6453C84.8426 18.3888 85.8483 18.7468 86.6187 19.3984C86.6221 19.3984 86.6256 19.3984 86.6309 19.3963C87.0335 18.4423 87.7219 17.7781 88.8775 17.8242C89.5974 17.8537 90.2475 18.2322 90.7495 18.771C91.0283 18.7339 91.3072 18.7007 91.5878 18.6677C91.8841 18.3003 92.2135 17.9572 92.5778 17.6491C93.1739 17.1433 93.9495 17.1841 94.3888 17.8962C94.4846 18.0512 94.5735 18.208 94.6624 18.3648L95.065 18.3353C95.5391 17.6581 96.1857 17.2005 97.0712 17.1638C97.8834 17.1285 98.4621 17.5494 98.903 18.1379C99.2621 18.1287 99.6229 18.1215 99.9837 18.1157C100.404 17.6009 100.899 17.147 101.463 16.7705C101.896 16.4827 102.534 16.5807 102.884 16.9645C103.121 17.2254 103.341 17.4978 103.546 17.7797C104.074 17.1531 104.787 16.7403 105.549 16.5825ZM79.8961 75.1784C80.7101 74.6875 81.8046 75.219 82.5924 75.636C83.5528 76.1434 84.5062 76.9092 85.0936 77.8687C85.8936 79.1752 84.013 80.2307 83.1711 79.0589C82.6534 78.3374 82.2404 77.6104 81.6129 76.9793C81.0395 76.3999 80.2081 76.0124 79.8787 75.2485C79.8665 75.2227 79.8699 75.1931 79.8961 75.1784ZM80.4684 43.4676L80.4836 43.4215C80.715 42.7511 79.7048 42.4622 79.4753 43.127C79.1274 44.1347 79.5284 45.2302 80.4686 45.6653C80.7292 45.786 81.0269 45.7441 81.1839 45.4668C81.3158 45.2333 81.2547 44.8289 80.9964 44.7095C80.4674 44.4646 80.2902 44.0323 80.4684 43.4676ZM71.7644 41.5931C72.2701 41.1207 71.5281 40.34 71.0249 40.8103C70.5553 41.2491 70.2071 41.8451 70.2976 42.5306C70.3898 43.2293 70.8874 43.7225 71.4321 44.0711C72.0093 44.4407 72.5355 43.4837 71.9598 43.115L71.8952 43.0732C71.6535 42.9143 71.3706 42.6958 71.3297 42.3832C71.2863 42.0511 71.5518 41.7918 71.7644 41.5931ZM74.6358 33.2577L74.6716 33.2299C75.2147 32.8195 74.693 31.8588 74.1436 32.2738C73.6399 32.6545 73.2359 33.149 73.1934 33.831C73.1521 34.4938 73.4707 35.0685 73.8873 35.5348C74.3507 36.0535 75.0894 35.2696 74.6268 34.752C74.1761 34.2475 74.088 33.6971 74.6358 33.2577Z" fill="black"/>
<path fill-rule="evenodd" clip-rule="evenodd" d="M124.226 87.5976C124.347 87.5629 124.454 87.7349 124.353 87.829C123.943 88.2144 123.682 88.9326 123.383 89.4221C123.098 89.8879 122.824 90.3488 122.573 90.8363C122.292 91.3827 122.021 91.9271 121.803 92.5052L121.759 92.6218C121.825 92.7867 121.876 92.9495 121.914 93.0562L121.925 93.0864C122.298 94.0958 121.514 95.2175 120.631 95.4997C119.119 95.9822 117.822 94.6678 117.786 93.1047C117.757 91.875 118.544 90.7793 119.344 89.9665C120.044 89.2555 120.828 88.6503 121.704 88.2069C122.091 88.0115 122.493 87.848 122.913 87.7531C123.342 87.6562 123.806 87.7179 124.226 87.5976ZM121.377 92.0538C121.488 92.1092 121.583 92.2445 121.662 92.4024C121.623 92.2685 121.541 92.1352 121.377 92.0538ZM122.323 74.9681C123.639 75.8151 125.645 77.79 124.229 79.8898C122.562 81.7412 120.163 79.6184 118.98 78.6584C117.884 77.9143 116.652 79.828 117.669 80.6968C126.214 87.3942 129.681 75.1896 122.989 73.9722C122.252 73.8381 121.978 74.7061 122.323 74.9681ZM111.504 66.8352L111.736 66.8145C112.745 66.7204 113.766 66.577 114.761 66.8186C116.097 67.1433 115.999 69.2015 114.761 69.58C113.67 69.9134 112.46 69.7691 111.334 69.7806C111.156 69.7824 110.979 69.7872 110.802 69.7903C110.767 70.2363 110.629 70.6209 110.418 71.0051C110.266 71.2808 110.072 71.5426 109.882 71.7875C109.43 72.3695 108.362 72.3564 107.906 71.7875C107.568 71.3664 107.299 70.882 107.295 70.312C107.294 70.166 107.31 70.011 107.343 69.8586L106.728 69.87C105.223 69.8943 103.707 69.8835 102.229 69.6304C101.703 69.7455 101.273 68.7413 101.999 68.4407C103.971 67.624 106.175 67.3836 108.268 67.1384C109.344 67.0121 110.425 66.9252 111.504 66.8352ZM128.308 65.9912L128.362 65.9855C129.667 65.844 131.106 65.599 132.414 65.7399C134.366 65.9501 134.363 68.7449 132.414 68.954C131.698 69.0308 130.944 68.9935 130.192 68.92C130.576 69.7832 130.12 70.8142 129.194 70.9459C128.334 71.0683 127.442 70.183 127.724 69.2334L127.737 69.1915C127.793 69.0267 127.842 68.8425 127.901 68.6608L127.589 68.633C126.658 68.5458 125.366 68.3679 125.024 67.5898C124.92 67.3553 124.944 67.1375 125.103 66.9371C125.756 66.1148 127.365 66.0878 128.308 65.9912ZM114.428 59.5922C115.372 59.2289 116.354 60.0792 116.477 61.0374C116.618 62.1417 115.865 62.8687 114.912 63.0006L114.864 63.0067C112.759 63.2521 110.67 63.7009 108.563 63.9546C107.606 64.0697 106.641 64.1454 105.677 64.1726L104.989 64.189C104.145 64.2116 103.24 64.232 102.461 63.9243L102.464 63.9188C102.257 63.8553 102.162 63.5394 102.392 63.3667C103.221 62.7458 104.34 62.511 105.305 62.216C106.276 61.9191 107.254 61.6454 108.235 61.3884C110.294 60.8492 112.433 60.3595 114.428 59.5922ZM123.14 59.8504C123.391 58.4533 125.26 58.3035 125.947 59.32C126.39 59.4813 127.041 59.6496 127.444 59.7762C128.147 59.9967 128.849 60.2159 129.554 60.4283C131.013 60.8682 132.436 61.4258 133.871 61.9456C134.019 61.9993 133.978 62.1979 133.836 62.2176C131.834 62.4935 129.866 62.6218 127.852 62.5334L127.439 62.5137C125.664 62.4405 122.651 62.5801 123.14 59.8504Z" fill="black"/>
<path fill-rule="evenodd" clip-rule="evenodd" d="M126.015 95.6242C124.391 94.0931 122.572 91.0153 120.24 93.4506C119.663 94.1387 119.43 95.6814 118.548 95.984C117.376 96.3862 116.216 95.0743 115.817 94.0668C114.183 88.4688 120.935 86.9334 124.781 87.8377C126.659 88.6546 128.043 91.9429 128.127 93.659C128.181 94.8122 127.259 96.508 126.015 95.6242ZM138.261 86.9958C138.245 86.9215 138.223 86.8543 138.196 86.7932C137.478 86.5059 136.91 86.7989 136.559 87.3462C136.57 87.4822 136.609 87.6201 136.633 87.755C136.362 88.3591 136.118 89.1066 135.751 89.6286C135.678 89.6345 135.603 89.6264 135.531 89.6043C129.446 90.2771 132.417 83.5365 126.245 81.8623C121.474 81.029 112.851 81.9836 110.6 87.2409C108.825 95.6383 99.7993 89.787 96.8359 85.4198C93.674 81.4453 91.6295 76.5886 89.6582 71.8759C89.2417 70.8785 87.9416 71.5917 88.0829 72.5486C86.2609 76.4183 86.3215 81.0665 85.8703 85.3058C85.1027 93.7635 84.3548 105.624 91.7775 110.789C101.449 122.362 125.599 126.445 136.753 115.812C140.615 107.023 140.139 96.3009 138.261 86.9958Z" fill="black"/>
</g>
<defs>
<clipPath id="clip0">
<rect width="198" height="227" fill="white"/>
</clipPath>
</defs>
</svg>
